<?xml version="1.0" encoding="utf-8"?>
<!-- Generator: Adobe Illustrator 19.0.0, SVG Export Plug-In . SVG Version: 6.00 Build 0)  -->
<svg version="1.1" xmlns="http://www.w3.org/2000/svg" xmlns:xlink="http://www.w3.org/1999/xlink" x="0px" y="0px"
	 viewBox="0 0 50 50" style="enable-background:new 0 0 50 50;" xml:space="preserve">
<style type="text/css">
	.st0{fill:#EE7A23;}
	.st1{fill:#A03722;}
	.st2{fill:#F4C342;}
	.st3{fill:#6FBE46;}
</style>
<g id="Layer_3">
</g>
<g id="Layer_2">
	<g id="XMLID_15_">
		<path id="XMLID_12_" class="st0" d="M41.8,21.1c-2.1-7.3-8.9-12.7-16.9-12.7c-8,0-14.8,5.4-16.9,12.7H41.8z"/>
		<path id="XMLID_11_" class="st1" d="M42.8,23.4c0,0.7-0.6,1.2-1.2,1.2H8.2c-0.7,0-1.2-0.6-1.2-1.2l0,0c0-0.7,0.6-1.2,1.2-1.2h33.3
			C42.2,22.2,42.8,22.7,42.8,23.4L42.8,23.4z"/>
		<path id="XMLID_10_" class="st1" d="M43.8,28.3c0,0.9-0.6,1.6-1.3,1.6h-35c-0.7,0-1.3-0.7-1.3-1.6l0,0c0-0.9,0.6-1.6,1.3-1.6h35
			C43.2,26.6,43.8,27.4,43.8,28.3L43.8,28.3z"/>
		<rect id="XMLID_9_" x="6.3" y="25.2" class="st2" width="37.4" height="1.1"/>
		<rect id="XMLID_8_" x="6.3" y="30.5" class="st2" width="37.4" height="1.1"/>
		<path id="XMLID_7_" class="st0" d="M7.4,33.4v5.4c0,1.5,1.3,2.8,2.8,2.8h29.7c1.5,0,2.8-1.3,2.8-2.8v-5.4H7.4z"/>
		<path id="XMLID_6_" class="st3" d="M7.9,32.2c0,0-3.5,1.7-1,3.1c0,0,1.9,0.1,2,1c0.1,0.9,5,0.4,5.4-1.4c0.4-1.8,2.9,1.9,4.1,2.8
			c1.2,1,2.9-0.7,5-1.6c2.1-0.9,3.8-2.1,5.7,0c1.9,2.1,2.3,0.2,4.9-1c2.6-1.2,3.6-1.8,5.8,0c2.2,1.8,5.7-0.4,3.6-2.9H7.9z"/>
		<circle id="XMLID_5_" class="st2" cx="17.2" cy="14.3" r="0.9"/>
		<circle id="XMLID_4_" class="st2" cx="22.6" cy="11.4" r="0.9"/>
		<circle id="XMLID_3_" class="st2" cx="24.9" cy="15.9" r="0.9"/>
		<circle id="XMLID_2_" class="st2" cx="30.1" cy="11.9" r="0.9"/>
		<circle id="XMLID_1_" class="st2" cx="32.4" cy="15.6" r="0.9"/>
	</g>
</g>
<g id="Layer_1">
</g>
</svg>
