<?xml version="1.0" encoding="utf-8"?>
<!-- Generator: Adobe Illustrator 19.0.0, SVG Export Plug-In . SVG Version: 6.00 Build 0)  -->
<svg version="1.1" xmlns="http://www.w3.org/2000/svg" xmlns:xlink="http://www.w3.org/1999/xlink" x="0px" y="0px"
	 viewBox="0 0 50 50" style="enable-background:new 0 0 50 50;" xml:space="preserve">
<style type="text/css">
	.st0{fill:#FDEEA0;}
	.st1{fill:#EE7A23;}
</style>
<g id="Layer_3">
	<g id="XMLID_1_">
		<path id="XMLID_2_" class="st0" d="M31.4,40.3l-2.6-4.4l3.6-2.1l2.7,4.6c1.2-0.4,2.5,0.1,3.2,1.2c0.7,1.3,0.3,2.9-1,3.7
			c-0.2,0.1-0.4,0.2-0.6,0.3c-0.3,0.5-0.7,1-1.2,1.4c-1.5,0.9-3.4,0.4-4.3-1.1C30.5,42.6,30.6,41.2,31.4,40.3z"/>
	</g>
</g>
<g id="Layer_2">
	<g id="XMLID_9_">
		<path id="XMLID_10_" class="st0" d="M31.4,40.3l-2.6-4.4l3.6-2.1l2.7,4.6c1.2-0.4,2.5,0.1,3.2,1.2c0.7,1.3,0.3,2.9-1,3.7
			c-0.2,0.1-0.4,0.2-0.6,0.3c-0.3,0.5-0.7,1-1.2,1.4c-1.5,0.9-3.4,0.4-4.3-1.1C30.5,42.6,30.6,41.2,31.4,40.3z"/>
	</g>
	<path id="XMLID_5_" class="st1" d="M14,6c0,0-13.7,8,4.3,24.8c0,0,3,2.7,6,1.8c0,0,3.1,0.2,3.1,4.3c0,0,2.3,1.5,4.2-0.8
		c2.9-0.5,2.8-3.3,2.8-3.3c-3.6-2-2.2-4.8-2.2-4.8c2.3-2.2,1.4-6.1,1.4-6.1C27.8-2,14,6,14,6z"/>
</g>
<g id="Layer_1">
</g>
</svg>
