<?xml version="1.0" encoding="utf-8"?>
<!-- Generator: Adobe Illustrator 19.0.0, SVG Export Plug-In . SVG Version: 6.00 Build 0)  -->
<svg version="1.1" xmlns="http://www.w3.org/2000/svg" xmlns:xlink="http://www.w3.org/1999/xlink" x="0px" y="0px"
	 viewBox="0 0 50 50" style="enable-background:new 0 0 50 50;" xml:space="preserve">
<style type="text/css">
	.st0{fill:#40AA96;}
	.st1{fill:#FDEEA0;}
	.st2{fill:#EE7A23;}
	.st3{fill:#6E421A;}
</style>
<g id="Layer_3">
</g>
<g id="Layer_2">
	<g id="XMLID_7_">
		<path id="XMLID_4_" class="st0" d="M23.6,17.1h-11l3,25.5c0,0,0.2,1.6,2,1.7h6h6c1.7-0.2,2-1.7,2-1.7l3-25.5H23.6z"/>
		<circle id="XMLID_3_" class="st1" cx="23.6" cy="29.4" r="7"/>
		<g id="XMLID_9_">
			<g id="XMLID_24_">
				<path id="XMLID_25_" class="st2" d="M23.3,16c0.5,0,1-0.4,1-1V8.8c0-0.6,0.2-0.8,0.3-0.8c0.3-0.3,0.8-0.3,0.8-0.3l9.2,0
					c0.5,0,1-0.4,1-1s-0.4-1-1-1h-9.2c-0.1,0-1.3,0-2.2,0.8c-0.4,0.4-0.9,1.1-0.9,2.3V15C22.4,15.6,22.8,16,23.3,16z"/>
			</g>
		</g>
		<path id="XMLID_1_" class="st3" d="M35.3,17.6c0,0,0-0.9,0-2c0,0,0-0.1,0-0.1c0-1-0.8-1-0.8-1h-1.6c0-0.9-0.9-1-0.9-1h-8.4h-8.4
			c0,0-0.9,0.1-0.9,1h-1.6c0,0-0.8,0-0.8,1c0,0,0,0,0,0.1c0,1.1,0,2,0,2s0,0.6,1.1,0.6h10.6h10.6C35.3,18.2,35.3,17.6,35.3,17.6z"/>
	</g>
</g>
<g id="Layer_1">
</g>
</svg>
