<?xml version="1.0" encoding="utf-8"?>
<!-- Generator: Adobe Illustrator 19.0.0, SVG Export Plug-In . SVG Version: 6.00 Build 0)  -->
<svg version="1.1" id="Layer_1" xmlns="http://www.w3.org/2000/svg" xmlns:xlink="http://www.w3.org/1999/xlink" x="0px" y="0px"
	 viewBox="0 0 50 50" style="enable-background:new 0 0 50 50;" xml:space="preserve">
<style type="text/css">
	.st0{fill:#EE7A23;}
	.st1{fill:#A03722;}
	.st2{fill:#F4C342;}
</style>
<g id="XMLID_6_">
	<path id="XMLID_3_" class="st0" d="M39.5,10.9c3.3,3.3,3.3,8.6,0,11.9l-17,17c-3.3,3.3-8.6,3.3-11.9,0l0,0c-3.3-3.3-3.3-8.6,0-11.9
		l17-17C30.9,7.7,36.2,7.7,39.5,10.9L39.5,10.9z"/>
	<path id="XMLID_2_" class="st1" d="M41.5,9.9c1.6,1.6,1.5,4.2-0.1,5.8L14.9,42.2c-1.6,1.6-4.3,1.7-5.8,0.1l-0.5-0.5
		C7,40.2,7,37.6,8.7,36L35.1,9.5c1.6-1.6,4.2-1.7,5.8-0.1L41.5,9.9z"/>
	<g id="XMLID_7_">
		<path id="XMLID_1_" class="st2" d="M13.9,39c-0.7-4.9,3.5-4.3,6.2-6.9c1.2-1.2,1.8-2.8,2.8-4.1c0.9-1.1,2.8-1.3,4-1.8
			c3.4-1.6,3.5-5.2,5.1-8.1c1-1.8,3.1-1.7,4.9-2.2c1.5-0.4,2.3-1.5,2.8-2.9c0.4-1.4-1.7-1.9-2.1-0.6c-0.5,1.9-3.3,1.6-4.8,2.2
			c-1.5,0.6-2.4,1.9-3.1,3.3c-0.8,1.7-1,3.7-2.2,5.2c-1.1,1.5-3,1.5-4.6,2.3c-1.5,0.7-2.3,2.2-3.1,3.6c-1,1.8-2.5,2.3-4.3,3.2
			c-3.2,1.6-4.2,4-3.7,7.4C12,40.9,14.1,40.3,13.9,39L13.9,39z"/>
	</g>
</g>
</svg>
